<svg width="151" height="181" viewBox="0 0 151 181" fill="none" xmlns="http://www.w3.org/2000/svg">
<path d="M63.6504 113.6V85.6H72.8204C76.1104 85.6 78.6804 86.25 80.5304 87.53C81.4408 88.1729 82.1721 89.0375 82.655 90.0419C83.138 91.0464 83.3567 92.1574 83.2904 93.27C83.3115 94.5136 82.9456 95.733 82.2433 96.7595C81.541 97.7861 80.5371 98.569 79.3704 99C80.9307 99.2104 82.3457 100.026 83.3104 101.27C84.2032 102.474 84.671 103.941 84.6404 105.44C84.7126 106.591 84.5099 107.743 84.0491 108.8C83.5883 109.857 82.8827 110.789 81.9904 111.52C80.2237 112.907 77.7271 113.6 74.5004 113.6H63.6504ZM69.2604 97.34H73.0104C74.2446 97.4247 75.472 97.0976 76.5004 96.41C76.9056 96.0938 77.2277 95.6836 77.4385 95.2148C77.6494 94.7461 77.7427 94.233 77.7104 93.72C77.7537 93.1811 77.6663 92.6397 77.4556 92.1418C77.245 91.6439 76.9173 91.2042 76.5004 90.86C75.4167 90.1718 74.1409 89.8493 72.8604 89.94H69.2604V97.34ZM69.2604 101.22V109.29H74.5004C75.716 109.367 76.9199 109.013 77.9004 108.29C78.3045 107.935 78.6212 107.491 78.8258 106.993C79.0305 106.495 79.1176 105.957 79.0804 105.42C79.1169 104.845 79.0326 104.268 78.8328 103.727C78.633 103.186 78.3222 102.693 77.9204 102.28C76.9443 101.482 75.6975 101.091 74.4404 101.19L69.2604 101.22Z" fill="#1A9DD9"/>
<path d="M94.7301 113.6H89.1201V85.6H94.7301V113.6Z" fill="#1A9DD9"/>
<path d="M122.92 102.12C122.975 103.684 122.717 105.244 122.161 106.707C121.604 108.17 120.761 109.508 119.68 110.64C117.4 112.798 114.379 114 111.24 114C108.101 114 105.08 112.798 102.8 110.64C101.726 109.504 100.887 108.166 100.333 106.703C99.7782 105.241 99.519 103.683 99.57 102.12V97.12C99.5182 95.5576 99.7761 94.0005 100.329 92.5383C100.881 91.076 101.718 89.7376 102.79 88.6C103.873 87.4795 105.179 86.6001 106.625 86.0194C108.071 85.4386 109.623 85.1696 111.18 85.23C112.75 85.1701 114.316 85.4389 115.776 86.0192C117.236 86.5995 118.559 87.4786 119.66 88.6C120.744 89.7289 121.591 91.0636 122.151 92.5252C122.711 93.9868 122.972 95.5457 122.92 97.11V102.12ZM117.33 97.05C117.412 95.1269 116.837 93.2331 115.7 91.68C115.167 90.9981 114.478 90.4536 113.692 90.0918C112.906 89.73 112.045 89.5614 111.18 89.6C110.327 89.5629 109.479 89.7337 108.707 90.0979C107.935 90.462 107.263 91.0084 106.75 91.69C105.643 93.2554 105.087 95.1443 105.17 97.06V102.13C105.084 104.063 105.643 105.97 106.76 107.55C107.276 108.236 107.953 108.786 108.73 109.152C109.507 109.518 110.362 109.689 111.22 109.65C112.084 109.689 112.944 109.518 113.728 109.153C114.511 108.787 115.195 108.237 115.72 107.55C116.847 105.974 117.414 104.066 117.33 102.13V97.05Z" fill="#1A9DD9"/>
<path d="M141.95 106.29C141.97 105.802 141.879 105.316 141.685 104.868C141.491 104.419 141.199 104.02 140.83 103.7C139.632 102.826 138.272 102.197 136.83 101.85C134.198 101.16 131.714 99.994 129.5 98.4101C128.681 97.7756 128.026 96.9544 127.59 96.0149C127.153 95.0755 126.947 94.0451 126.99 93.0101C126.973 91.9153 127.22 90.8325 127.711 89.854C128.202 88.8754 128.922 88.0301 129.81 87.3901C131.999 85.9514 134.569 85.2024 137.188 85.2399C139.806 85.2773 142.354 86.0995 144.5 87.6001C145.413 88.3333 146.138 89.2738 146.615 90.3434C147.091 91.413 147.306 92.5809 147.24 93.7501V93.8701H141.8C141.843 93.2624 141.748 92.653 141.523 92.0869C141.298 91.5208 140.949 91.0127 140.5 90.6001C139.495 89.7946 138.226 89.3919 136.94 89.4701C135.784 89.4 134.642 89.7557 133.73 90.4701C133.365 90.787 133.074 91.1809 132.879 91.6235C132.683 92.0661 132.588 92.5464 132.6 93.0301C132.597 93.4912 132.707 93.9461 132.922 94.3544C133.136 94.7626 133.449 95.1115 133.83 95.3701C135.151 96.2074 136.581 96.857 138.08 97.3001C140.632 97.9208 143.019 99.0839 145.08 100.71C145.872 101.394 146.5 102.247 146.919 103.205C147.338 104.164 147.537 105.204 147.5 106.25C147.54 107.353 147.305 108.449 146.816 109.439C146.328 110.428 145.6 111.281 144.7 111.92C142.518 113.4 139.914 114.13 137.28 114C134.523 114.075 131.81 113.288 129.52 111.75C128.456 111.003 127.607 109.991 127.056 108.814C126.505 107.636 126.272 106.335 126.38 105.04V104.93H131.82C131.765 105.61 131.868 106.293 132.121 106.927C132.375 107.56 132.771 108.126 133.28 108.58C134.437 109.424 135.852 109.837 137.28 109.75C138.497 109.834 139.706 109.502 140.71 108.81C141.103 108.52 141.421 108.139 141.637 107.701C141.852 107.262 141.96 106.779 141.95 106.29Z" fill="#1A9DD9"/>
<path d="M63.6504 148.05V120.05H72.8204C76.1137 120.05 78.6837 120.697 80.5304 121.99C81.4407 122.631 82.1721 123.493 82.6551 124.496C83.1382 125.499 83.3569 126.609 83.2904 127.72C83.3095 128.941 82.9611 130.14 82.2904 131.16C81.5835 132.213 80.5613 133.014 79.3704 133.45C80.9307 133.66 82.3457 134.476 83.3104 135.72C84.2032 136.924 84.671 138.391 84.6404 139.89C84.7134 141.041 84.5111 142.193 84.0503 143.25C83.5894 144.308 82.8833 145.24 81.9904 145.97C80.2237 147.35 77.7171 148.04 74.4704 148.04L63.6504 148.05ZM69.2604 131.79H73.0104C74.2329 131.866 75.447 131.543 76.4704 130.87C76.8751 130.551 77.1966 130.139 77.4073 129.669C77.6181 129.199 77.7118 128.684 77.6804 128.17C77.7264 127.634 77.6433 127.094 77.438 126.597C77.2327 126.099 76.9112 125.658 76.5004 125.31C75.4167 124.622 74.1409 124.299 72.8604 124.39H69.2604V131.79ZM69.2604 135.67V143.74H74.5004C75.716 143.817 76.9199 143.463 77.9004 142.74C78.3057 142.386 78.6232 141.942 78.828 141.444C79.0328 140.946 79.1191 140.407 79.0804 139.87C79.1174 139.296 79.0332 138.721 78.8333 138.182C78.6335 137.642 78.3224 137.151 77.9204 136.74C76.9458 135.938 75.6989 135.544 74.4404 135.64L69.2604 135.67Z" fill="#1A9DD9"/>
<path d="M103.21 140.69H103.32L110.5 120.06H117.82V148.06H112.21V128.94H112.09L105.17 148.07H101.37L94.5005 128.89H94.3805V148.03H88.7305V120.03H96.0905L103.21 140.69Z" fill="#1A9DD9"/>
<path d="M143.97 138.78V138.9C144.062 140.196 143.866 141.497 143.393 142.708C142.921 143.918 142.186 145.009 141.24 145.9C139.37 147.6 136.79 148.44 133.49 148.44C131.983 148.5 130.481 148.243 129.08 147.685C127.679 147.127 126.412 146.28 125.36 145.2C124.319 144.077 123.51 142.759 122.98 141.323C122.45 139.887 122.209 138.36 122.27 136.83V131.28C122.143 128.206 123.219 125.204 125.27 122.91C126.278 121.83 127.508 120.979 128.874 120.417C130.241 119.854 131.713 119.593 133.19 119.65C136.59 119.65 139.26 120.48 141.19 122.15C142.159 123.027 142.916 124.113 143.403 125.326C143.89 126.538 144.094 127.846 144 129.15V129.27H138.54C138.597 128.551 138.512 127.827 138.289 127.14C138.066 126.454 137.709 125.818 137.24 125.27C136.696 124.793 136.061 124.43 135.374 124.203C134.687 123.976 133.961 123.89 133.24 123.95C132.469 123.921 131.703 124.09 131.015 124.44C130.327 124.79 129.74 125.31 129.31 125.95C128.303 127.506 127.806 129.338 127.89 131.19V136.78C127.808 138.651 128.33 140.499 129.38 142.05C129.85 142.701 130.474 143.224 131.197 143.573C131.92 143.922 132.718 144.086 133.52 144.05C134.204 144.104 134.892 144.014 135.539 143.787C136.187 143.56 136.779 143.2 137.28 142.73C138.183 141.601 138.626 140.172 138.52 138.73L143.97 138.78Z" fill="#1A9DD9"/>
<path d="M41.2197 155.19C45.774 151.841 49.3621 147.348 51.6205 142.165C53.8788 136.983 54.7273 131.296 54.0797 125.68L53.8397 123.58C53.7176 122.527 53.9203 121.461 54.4207 120.527C54.9212 119.592 55.6955 118.832 56.6397 118.35V118.35C57.371 117.978 58.004 117.439 58.4874 116.776C58.9708 116.113 59.2908 115.345 59.4214 114.536C59.552 113.726 59.4895 112.896 59.239 112.115C58.9885 111.334 58.557 110.623 57.9797 110.04V110.04C56.1389 108.188 54.723 105.958 53.8302 103.504C52.9374 101.05 52.5892 98.4318 52.8097 95.83L53.8097 83.62C53.9504 81.9473 54.4617 80.3269 55.3064 78.8763C56.1512 77.4257 57.3082 76.1814 58.6936 75.2335C60.079 74.2857 61.658 73.6581 63.3161 73.3963C64.9741 73.1345 66.6697 73.2451 68.2797 73.72L72.3497 74.92C85.6797 79.01 92.7097 77.48 97.9397 75.8C103.17 74.12 108.26 74.38 115.34 76.27C119.074 77.3541 123.048 77.2808 126.74 76.06V76.06C134.235 73.5396 142.178 72.6298 150.05 73.39L150.66 73.45" stroke="#1A9DD9" stroke-miterlimit="10"/>
<path d="M34.5 159.4C42.22 153.72 47.44 133.27 46.34 123.74L46.21 121.3C46.1243 120.245 46.3121 119.185 46.7553 118.223C47.1984 117.262 47.882 116.43 48.74 115.81V115.81C50.0731 114.868 50.9971 113.453 51.3241 111.853C51.651 110.254 51.3563 108.59 50.5 107.2V107.2C49.1383 105.139 48.2017 102.826 47.7449 100.398C47.2881 97.9701 47.3205 95.4754 47.84 93.06C48.09 92.82 48.74 87.89 49.01 87.68L50.42 81.47C50.92 75.47 59.66 69.28 65.42 70.96L69.42 71.49C80.5 74.9 90.11 70.72 94.5 69.32C98.89 67.92 105.66 66.16 111.56 67.73C114.56 68.54 119.41 67.38 122.74 66.26C128.98 64.16 139.03 60.75 145.59 61.39H146.18" stroke="#29A2CD" stroke-miterlimit="10"/>
<path d="M27.8096 163.6C33.9896 159.05 39.5196 129.41 38.6396 121.79V119.01C38.5925 117.945 38.7693 116.882 39.1586 115.89C39.5479 114.898 40.141 113.999 40.8996 113.25V113.25C42.0583 112.119 42.8711 110.681 43.2429 109.105C43.6148 107.529 43.5304 105.88 42.9996 104.35C41.2915 99.8177 41.2383 94.8277 42.8496 90.26C43.3396 89.78 44.1696 85.57 44.7196 85.14L46.9896 79.29C47.3896 74.53 57.8796 66.84 62.4596 68.19L66.3896 68.05C75.2796 70.77 87.5096 63.93 90.9896 62.81C94.4696 61.69 102.99 57.92 107.7 59.18C110.14 59.82 115.99 57.35 118.65 56.45C123.65 54.77 135.81 48.86 141.05 49.37L141.63 49.28" stroke="#36A6C0" stroke-miterlimit="10"/>
<path d="M21.1104 167.83C25.7504 164.42 31.5804 125.59 30.9204 119.83L31.0104 116.72C31.0104 114.556 31.7121 112.451 33.0103 110.72V110.72C34.9956 108.089 35.8877 104.793 35.5004 101.52V101.52C34.8804 97.09 34.8503 91.7 37.8703 87.52C38.4603 86.69 39.6104 83.3 40.4304 82.67L43.5004 77.15C43.8004 73.58 56.0304 64.45 59.5004 65.46L63.3604 64.65C70.0304 66.65 84.8604 57.19 87.4704 56.35C90.0804 55.51 100.3 49.72 103.83 50.66C105.66 51.15 112.56 47.35 114.56 46.66C118.31 45.39 132.56 36.99 136.56 37.37L137.12 37.2" stroke="#40AAB1" stroke-miterlimit="10"/>
<path d="M14.4102 172.04C17.5002 169.76 23.6402 121.75 23.2002 117.94L23.4002 114.49C23.4658 112.285 24.0517 110.126 25.1102 108.19V108.19C26.3202 105.13 27.7702 101.67 27.9702 98.7C28.3902 94.03 29.5202 88.84 32.8602 84.7C33.7202 83.63 35.0202 80.95 36.1202 80.1L40.1202 74.97C40.3202 72.59 54.2902 61.97 56.5802 62.68L60.3802 61.19C64.8102 62.6 82.2502 50.42 83.9902 49.86C85.7302 49.3 97.6502 41.5 99.9902 42.12C101.2 42.45 109.15 37.33 110.49 36.88C112.98 36.04 129.36 25.13 131.98 25.39L132.52 25.15" stroke="#4AAFA0" stroke-miterlimit="10"/>
<path d="M7.7002 176.25C9.2502 175.11 15.7002 117.91 15.4702 116L15.7802 112.21C15.939 109.964 16.4275 107.754 17.2302 105.65V105.65C18.2302 102.4 19.5902 98.96 20.4702 95.86C21.8603 90.7261 24.3896 85.9716 27.8702 81.95C29.0888 80.4047 30.4262 78.957 31.8702 77.6199L36.7202 72.84C36.8202 71.65 52.5402 59.62 53.7202 59.95L57.4502 57.8C59.6702 58.48 79.7102 43.66 80.5802 43.38C81.4502 43.1 94.9902 33.27 96.1702 33.6C96.7802 33.76 105.78 27.32 106.44 27.1C107.69 26.68 126.17 13.27 127.44 13.4L127.96 13.08" stroke="#54B38E" stroke-miterlimit="10"/>
<path d="M1 180.46L8.17 109.94C8.86197 103.126 10.9324 96.5232 14.2554 90.5339C17.5783 84.5446 22.0845 79.2936 27.5 75.1L123.5 1" stroke="#5CB67A" stroke-miterlimit="10"/>
</svg>
