<svg width="180" height="129" viewBox="0 0 180 129" fill="none" xmlns="http://www.w3.org/2000/svg">
<path d="M83.1899 94.2679V66.2679H92.9499C94.5083 66.2164 96.0611 66.4804 97.5149 67.044C98.9687 67.6077 100.294 68.4594 101.41 69.5479C102.514 70.6448 103.38 71.958 103.953 73.4052C104.526 74.8524 104.794 76.4024 104.74 77.9579V82.5979C104.798 84.1539 104.531 85.705 103.958 87.1527C103.385 88.6004 102.517 89.9132 101.41 91.0079C100.291 92.092 98.9655 92.9394 97.5119 93.4995C96.0584 94.0596 94.5068 94.321 92.9499 94.2679H83.1899ZM88.7999 70.6079V89.9579H92.9499C93.8027 89.9877 94.6506 89.8168 95.4252 89.459C96.1999 89.1012 96.8797 88.5665 97.4099 87.8979C98.5828 86.387 99.1817 84.5089 99.0999 82.5979V77.9279C99.1791 76.0295 98.58 74.1649 97.4099 72.6679C96.8797 71.9994 96.1999 71.4647 95.4252 71.1069C94.6506 70.7491 93.8027 70.5782 92.9499 70.6079H88.7999Z" fill="#1A9DD9"/>
<path d="M117.82 94.668C116.476 94.7435 115.132 94.528 113.879 94.0361C112.626 93.5443 111.494 92.7876 110.56 91.818C108.782 89.8037 107.848 87.1826 107.95 84.498V83.698C107.831 80.9246 108.731 78.2037 110.48 76.048C111.339 75.0458 112.417 74.2542 113.631 73.7341C114.845 73.214 116.161 72.9793 117.48 73.048C118.674 72.9718 119.871 73.162 120.983 73.6047C122.095 74.0474 123.095 74.7317 123.91 75.608C125.481 77.5575 126.278 80.0176 126.15 82.518V85.498H113.75L113.69 85.608C113.723 86.8745 114.181 88.093 114.99 89.068C115.432 89.5301 115.97 89.8889 116.566 90.1188C117.163 90.3487 117.802 90.444 118.44 90.398C119.52 90.4205 120.597 90.2892 121.64 90.008C122.59 89.7287 123.503 89.3358 124.36 88.838L125.88 92.298C124.868 93.0711 123.722 93.6508 122.5 94.008C120.984 94.4718 119.405 94.6945 117.82 94.668ZM117.46 77.408C116.964 77.3799 116.469 77.4715 116.017 77.6752C115.564 77.8788 115.167 78.1885 114.86 78.578C114.202 79.477 113.817 80.5462 113.75 81.658V81.758H120.65V81.328C120.705 80.3165 120.443 79.3131 119.9 78.458C119.614 78.0926 119.24 77.8049 118.814 77.6214C118.388 77.438 117.922 77.3646 117.46 77.408Z" fill="#1A9DD9"/>
<path d="M135.3 94.2679H129.65V64.2679H135.27L135.3 94.2679Z" fill="#1A9DD9"/>
<path d="M146.65 68.3779V73.4979H150.16V77.4379H146.65V87.9979C146.589 88.619 146.772 89.2395 147.16 89.7279C147.333 89.9027 147.541 90.0393 147.77 90.1289C147.999 90.2184 148.244 90.259 148.49 90.2479C148.746 90.2705 149.004 90.2705 149.26 90.2479C149.514 90.2125 149.764 90.1591 150.01 90.0879L150.47 94.1479C149.934 94.3295 149.386 94.4732 148.83 94.5779C148.255 94.6733 147.673 94.7201 147.09 94.7179C146.277 94.7599 145.465 94.6362 144.702 94.3542C143.938 94.0723 143.24 93.6381 142.65 93.0779C141.65 92.0079 141.08 90.3279 141.08 88.0179V77.4079H138.08V73.4979H141.08V68.3779H146.65Z" fill="#1A9DD9"/>
<path d="M165.88 94.268C165.667 93.7814 165.49 93.2801 165.35 92.768C165.203 92.2401 165.096 91.7019 165.03 91.158C164.464 92.1557 163.682 93.0136 162.74 93.668C161.748 94.352 160.564 94.7022 159.36 94.668C157.538 94.7814 155.744 94.1785 154.36 92.988C153.759 92.3926 153.29 91.6767 152.985 90.8873C152.68 90.098 152.545 89.2531 152.59 88.408C152.55 87.4838 152.744 86.5644 153.155 85.7356C153.566 84.9068 154.18 84.1955 154.94 83.668C156.513 82.548 158.803 81.988 161.81 81.988H164.97V80.328C165.018 79.4813 164.735 78.6491 164.18 78.008C163.867 77.7151 163.496 77.4901 163.092 77.3473C162.687 77.2045 162.258 77.1468 161.83 77.178C161.07 77.1268 160.32 77.3663 159.73 77.848C159.48 78.0759 159.284 78.3566 159.156 78.6696C159.028 78.9827 158.971 79.3203 158.99 79.658H153.59V79.548C153.556 78.6568 153.749 77.7716 154.152 76.9757C154.554 76.1798 155.152 75.4992 155.89 74.998C157.728 73.6576 159.968 72.9839 162.24 73.088C164.418 72.9866 166.562 73.6519 168.3 74.968C169.08 75.6257 169.696 76.4562 170.098 77.3936C170.501 78.3311 170.68 79.3495 170.62 80.368V88.958C170.614 89.8793 170.688 90.7994 170.84 91.708C170.992 92.5814 171.227 93.4385 171.54 94.268H165.88ZM160.75 90.498C161.672 90.5133 162.579 90.2596 163.36 89.768C164.042 89.3726 164.591 88.7847 164.94 88.078V85.158H161.78C160.799 85.085 159.829 85.4011 159.08 86.038C158.785 86.3164 158.552 86.6532 158.396 87.0269C158.239 87.4006 158.162 87.8029 158.17 88.208C158.156 88.5219 158.209 88.8352 158.327 89.1267C158.444 89.4182 158.622 89.6812 158.85 89.898C159.386 90.3285 160.064 90.5425 160.75 90.498Z" fill="#1A9DD9"/>
<path d="M87 128.278V100.278H96.16C99.4933 100.278 102.063 100.921 103.87 102.208C104.783 102.849 105.517 103.713 106.002 104.718C106.486 105.722 106.706 106.834 106.64 107.948C106.669 109.192 106.307 110.414 105.603 111.441C104.9 112.467 103.891 113.246 102.72 113.668C104.278 113.885 105.691 114.699 106.66 115.938C107.546 117.145 108.01 118.611 107.98 120.108C108.055 121.261 107.854 122.415 107.393 123.474C106.932 124.534 106.225 125.467 105.33 126.198C103.557 127.571 101.053 128.258 97.82 128.258L87 128.278ZM92.65 112.018H96.4C97.6224 112.092 98.836 111.77 99.86 111.098C100.263 110.78 100.583 110.369 100.793 109.901C101.004 109.432 101.099 108.921 101.07 108.408C101.114 107.857 101.022 107.303 100.802 106.796C100.583 106.289 100.242 105.843 99.81 105.498C98.7218 104.812 97.4435 104.489 96.16 104.578H92.65V112.018ZM92.65 115.898V123.978H97.86C99.0749 124.048 100.276 123.695 101.26 122.978C101.662 122.619 101.976 122.173 102.179 121.674C102.382 121.174 102.468 120.635 102.43 120.098C102.468 119.525 102.386 118.95 102.188 118.411C101.989 117.872 101.68 117.38 101.28 116.968C100.305 116.166 99.0585 115.772 97.8 115.868L92.65 115.898Z" fill="#1A9DD9"/>
<path d="M126.55 120.918H126.65L133.84 100.298H141.16V128.298H135.55V109.198H135.43L128.51 128.318H124.71L117.79 109.158H117.67V128.298H112.06V100.298H119.42L126.55 120.918Z" fill="#1A9DD9"/>
<path d="M167.32 119.018V119.128C167.412 120.424 167.215 121.724 166.742 122.935C166.27 124.146 165.535 125.236 164.59 126.128C162.72 127.818 160.13 128.668 156.84 128.668C155.345 128.733 153.853 128.485 152.459 127.939C151.066 127.393 149.802 126.562 148.75 125.498C147.709 124.375 146.901 123.057 146.37 121.621C145.84 120.185 145.599 118.658 145.66 117.128V111.498C145.533 108.424 146.61 105.422 148.66 103.128C149.67 102.049 150.899 101.2 152.266 100.638C153.632 100.075 155.103 99.8127 156.58 99.8679C159.99 99.8679 162.66 100.708 164.58 102.368C165.548 103.245 166.304 104.332 166.791 105.544C167.278 106.757 167.483 108.064 167.39 109.368V109.478H161.93C162.044 108.025 161.576 106.586 160.63 105.478C160.084 105.005 159.449 104.645 158.762 104.42C158.075 104.195 157.35 104.11 156.63 104.168C155.858 104.136 155.091 104.303 154.403 104.654C153.715 105.004 153.128 105.525 152.7 106.168C151.67 107.749 151.163 109.613 151.25 111.498V117.098C151.168 118.966 151.69 120.811 152.74 122.358C153.209 123.009 153.834 123.533 154.557 123.882C155.28 124.231 156.078 124.395 156.88 124.358C157.564 124.412 158.252 124.322 158.899 124.095C159.547 123.867 160.14 123.508 160.64 123.038C161.548 121.911 161.991 120.481 161.88 119.038L167.32 119.018Z" fill="#1A9DD9"/>
<path d="M179.43 54.4979L132.65 7.71794C128.348 3.41649 122.514 1 116.43 1C110.346 1 104.512 3.41649 100.21 7.71794L1 106.958" stroke="#5CB67A" stroke-miterlimit="10"/>
<path d="M12.3198 109.798L55.3998 58.0079C55.3998 56.6079 76.2298 36.0079 77.6098 36.1779L101.65 16.7679C106.19 13.0279 111.97 10.1979 117.52 10.5679C120.212 10.3374 122.923 10.6622 125.484 11.5223C128.045 12.3824 130.403 13.7594 132.41 15.5679C132.51 15.5679 134.25 17.2279 134.35 17.2479L178.58 56.2479" stroke="#54B38E" stroke-miterlimit="10"/>
<path d="M23.6499 112.628L58.0999 60.7679C58.0999 57.9579 76.2599 40.1579 79.0399 40.5879L103.04 25.8079C107.634 22.9817 112.725 21.0573 118.04 20.1379V20.1379C122.71 18.8479 127.9 20.3579 132.11 23.3979C132.32 23.3979 133.83 24.7579 134.04 24.8079L177.71 58.0579" stroke="#4AAFA0" stroke-miterlimit="10"/>
<path d="M34.9399 115.498L60.7899 63.498C60.7899 59.288 76.2999 44.328 80.4599 44.978L104.46 34.838C109.081 32.8413 113.82 31.1281 118.65 29.708V29.708C120.845 29.0446 123.153 28.8372 125.432 29.0986C127.711 29.36 129.912 30.0846 131.9 31.228C132.21 31.228 133.5 32.298 133.81 32.378L176.92 59.858" stroke="#40AAB1" stroke-miterlimit="10"/>
<path d="M46.2598 118.308L63.4898 66.3079C63.4898 60.6879 76.3298 48.5779 81.8798 49.4479L105.88 43.9379C110.431 42.8043 114.869 41.2579 119.14 39.3179V39.3179C122.98 37.5179 127.3 38.0079 131.58 39.1079C131.98 39.2179 133.06 39.8779 133.47 39.9779L176.02 61.6979" stroke="#36A6C0" stroke-miterlimit="10"/>
<path d="M57.5698 121.138L66.1798 69.018C66.1798 62.018 76.3698 52.728 83.2998 53.818L107.3 52.948C111.718 52.6935 115.992 51.2794 119.69 48.848V48.848C123.07 46.568 127.23 46.158 131.3 46.908C131.82 46.998 132.67 47.378 133.18 47.508L175.18 63.508" stroke="#29A2CD" stroke-miterlimit="10"/>
<path d="M68.8799 123.978V71.768C68.8804 69.7864 69.3102 67.8285 70.1396 66.0289C70.969 64.2292 72.1784 62.6306 73.6846 61.343C75.1908 60.0554 76.958 59.1093 78.8647 58.5698C80.7714 58.0304 82.7724 57.9103 84.7299 58.218L108.73 61.998C110.796 62.3215 112.909 62.167 114.906 61.5464C116.903 60.9257 118.731 59.8555 120.25 58.418V58.418C121.911 56.8447 123.941 55.7136 126.153 55.1283C128.364 54.543 130.688 54.5223 132.91 55.068L174.34 65.248" stroke="#1A9DD9" stroke-miterlimit="10"/>
</svg>
