<svg width="112" height="53" viewBox="0 0 112 53" fill="none" xmlns="http://www.w3.org/2000/svg">
<path d="M37.4329 47.0338H10.3538L23.8933 23.5667L27.2782 17.6999L23.8933 11.7336L0 53.0001H47.6871L44.3022 47.0338H37.4329Z" fill="#1660AC"/>
<path d="M44.2029 0L20.3096 41.2664H67.9967L44.2029 0Z" fill="#D73727"/>
<path d="M75.6624 32.5159C74.7664 32.5159 73.97 32.6153 73.2731 32.7147V41.1669C73.8704 41.2663 74.4678 41.2663 75.2642 41.2663C76.9567 41.2663 78.2509 40.8686 79.1469 39.9737C79.9433 39.1782 80.4411 37.9849 80.4411 36.5928C80.4411 35.2007 79.9433 34.2063 79.2464 33.5102C78.45 32.9136 77.2553 32.5159 75.6624 32.5159ZM75.5629 40.4708C75.1647 40.4708 74.6669 40.4708 74.4678 40.3714V33.5102C74.7664 33.4108 75.1647 33.4108 75.762 33.4108C78.1513 33.4108 79.2464 34.7035 79.2464 36.7917C79.2464 39.0787 77.9522 40.4708 75.5629 40.4708ZM88.5051 40.3714H84.722V37.2889H88.1069V36.3939H84.722V33.7091H88.306V32.8142H83.6269V41.4652H88.5051V40.3714ZM96.4695 40.3714H92.786V32.6153H91.5913V41.2663H96.4695V40.3714ZM110.806 41.2663H112L109.014 32.6153H107.719L104.733 41.2663H105.927L106.823 38.5815H109.91L110.806 41.2663ZM107.122 37.6866L108.018 35.2007C108.217 34.7035 108.317 34.1069 108.416 33.6097C108.516 34.1069 108.715 34.604 108.914 35.2007L109.81 37.6866H107.122ZM101.049 41.2663V33.6097H103.737V32.6153H97.3656V33.6097H99.954V41.2663H101.049ZM54.0589 49.5196C53.2624 49.2213 52.8642 48.923 52.8642 48.3264C52.8642 47.9286 53.1629 47.4314 53.9593 47.4314C54.4571 47.4314 54.8553 47.6303 55.0544 47.7298L55.2535 47.1331C54.9549 46.9343 54.5567 46.8348 53.9593 46.8348C52.7647 46.8348 52.0678 47.5309 52.0678 48.4258C52.0678 49.2213 52.6651 49.8179 53.6607 50.1162C54.4571 50.4146 54.7558 50.7129 54.7558 51.3095C54.7558 51.9061 54.258 52.3039 53.4615 52.3039C52.9638 52.3039 52.466 52.105 52.0678 51.9061L51.8687 52.6022C52.1673 52.801 52.8642 52.9999 53.362 52.9999C54.7558 52.9999 55.4527 52.2044 55.4527 51.3095C55.5522 50.4146 55.0544 49.9174 54.0589 49.5196ZM67.9967 46.9343H67.2002V52.9005H70.5851V52.2044H67.9967V46.9343ZM61.3264 46.8348C59.7335 46.8348 58.5389 48.0281 58.5389 50.0168C58.5389 51.8067 59.634 53.0994 61.2269 53.0994C62.7202 53.0994 64.0144 52.0055 64.0144 49.9174C64.0144 48.1275 62.9193 46.8348 61.3264 46.8348ZM61.2269 52.4033C60.0322 52.4033 59.3353 51.2101 59.3353 50.0168C59.3353 48.7241 59.9327 47.5309 61.2269 47.5309C62.5211 47.5309 63.1184 48.7241 63.1184 50.0168C63.218 51.3095 62.5211 52.4033 61.2269 52.4033ZM80.6402 47.6303H82.4322V52.9999H83.2287V47.6303H85.0207V46.9343H80.6402V47.6303ZM110.507 49.5196C109.71 49.2213 109.312 48.923 109.312 48.3264C109.312 47.9286 109.611 47.4314 110.407 47.4314C110.905 47.4314 111.303 47.6303 111.502 47.7298L111.702 47.1331C111.403 46.9343 111.005 46.8348 110.407 46.8348C109.213 46.8348 108.516 47.5309 108.516 48.4258C108.516 49.2213 109.113 49.8179 110.109 50.1162C110.905 50.4146 111.204 50.7129 111.204 51.3095C111.204 51.9061 110.706 52.3039 109.91 52.3039C109.412 52.3039 108.914 52.105 108.516 51.9061L108.317 52.6022C108.615 52.801 109.312 52.9999 109.81 52.9999C111.204 52.9999 111.901 52.2044 111.901 51.3095C112 50.4146 111.502 49.9174 110.507 49.5196ZM104.334 49.4202C104.334 50.3151 104.334 51.1106 104.434 51.9061C104.135 51.3095 103.837 50.7129 103.339 49.9174L101.447 46.9343H100.551V52.9005H101.248V50.3151C101.248 49.3207 101.248 48.6247 101.149 47.8292C101.447 48.5252 101.846 49.1219 102.244 49.8179L104.135 52.9005H104.932V46.9343H104.235V49.4202H104.334ZM87.9078 52.9005H88.7042V46.9343H87.9078V52.9005ZM76.9567 50.514C76.9567 51.8067 76.3593 52.4033 75.4633 52.4033C74.6669 52.4033 74.0695 51.8067 74.0695 50.514V46.9343H73.2731V50.4146C73.2731 52.3039 74.1691 52.9999 75.4633 52.9999C76.7575 52.9999 77.7531 52.2044 77.7531 50.4146V46.9343H76.9567V50.514ZM94.6775 46.8348C93.0847 46.8348 91.89 48.0281 91.89 50.0168C91.89 51.8067 92.9851 53.0994 94.578 53.0994C96.0713 53.0994 97.3656 52.0055 97.3656 49.9174C97.3656 48.1275 96.37 46.8348 94.6775 46.8348ZM94.6775 52.4033C93.4829 52.4033 92.786 51.2101 92.786 50.0168C92.786 48.7241 93.3833 47.5309 94.6775 47.5309C95.9718 47.5309 96.5691 48.7241 96.5691 50.0168C96.5691 51.3095 95.8722 52.4033 94.6775 52.4033Z" fill="white"/>
</svg>
