<svg width="183" height="110" viewBox="0 0 183 110" fill="none" xmlns="http://www.w3.org/2000/svg">
<path d="M64.79 7.5504V58.2404C64.7847 59.9759 64.0929 61.6389 62.8657 62.8661C61.6385 64.0933 59.9755 64.7851 58.24 64.7904H7.55C5.81445 64.7851 4.1515 64.0933 2.92428 62.8661C1.69706 61.6389 1.00528 59.9759 1 58.2404V7.5504C1.00528 5.81486 1.69706 4.1519 2.92428 2.92468C4.1515 1.69746 5.81445 1.00568 7.55 1.0004H58.24C59.112 0.990598 59.9767 1.16081 60.78 1.5004" stroke="#1A9DD9" stroke-miterlimit="10"/>
<path d="M75.5004 11.6104V62.2904C75.4952 64.0259 74.8034 65.6889 73.5762 66.9161C72.3489 68.1433 70.686 68.8351 68.9504 68.8404H18.2404C16.5049 68.8351 14.8419 68.1433 13.6147 66.9161C12.3875 65.6889 11.6957 64.0259 11.6904 62.2904V11.6104C11.6957 9.87482 12.3875 8.21187 13.6147 6.98464C14.8419 5.75742 16.5049 5.06564 18.2404 5.06037H68.7104C69.574 5.04623 70.4324 5.19552 71.2404 5.50037" stroke="#31A0CF" stroke-miterlimit="10"/>
<path d="M86.1696 15.6604V66.3504C86.1644 68.0859 85.4726 69.7489 84.2454 70.9761C83.0181 72.2033 81.3552 72.8951 79.6197 72.9004H28.9396C27.2041 72.8951 25.5411 72.2033 24.3139 70.9761C23.0867 69.7489 22.3949 68.0859 22.3896 66.3504V15.6604C22.3949 13.9248 23.0867 12.2619 24.3139 11.0347C25.5411 9.80744 27.2041 9.11566 28.9396 9.11039H79.1796C80.0357 9.09637 80.8879 9.22826 81.6996 9.50039" stroke="#40A4C3" stroke-miterlimit="10"/>
<path d="M96.8701 19.7205V70.4105C96.8648 72.1477 96.1716 73.8122 94.9423 75.0397C93.7129 76.2672 92.0474 76.9578 90.3101 76.9605H39.6301C37.8945 76.9552 36.2316 76.2634 35.0044 75.0362C33.7771 73.809 33.0854 72.146 33.0801 70.4105V19.7205C33.0854 17.9849 33.7771 16.322 35.0044 15.0947C36.2316 13.8675 37.8945 13.1757 39.6301 13.1705H89.6301C90.4813 13.1675 91.3279 13.2957 92.1401 13.5505" stroke="#4DA7B7" stroke-miterlimit="10"/>
<path d="M107.56 23.7804V74.5004C107.554 76.2359 106.862 77.8989 105.635 79.1261C104.408 80.3533 102.745 81.0451 101.01 81.0504H50.3195C48.584 81.0451 46.921 80.3533 45.6938 79.1261C44.4666 77.8989 43.7748 76.2359 43.7695 74.5004V23.7804C43.7748 22.0448 44.4666 20.3819 45.6938 19.1546C46.921 17.9274 48.584 17.2356 50.3195 17.2304H100.12C100.966 17.2289 101.81 17.3364 102.63 17.5504" stroke="#58AAA9" stroke-miterlimit="10"/>
<path d="M118.25 27.8304V78.5004C118.245 80.2359 117.553 81.8989 116.326 83.1261C115.099 84.3533 113.436 85.0451 111.7 85.0504H61.02C59.2897 85.0372 57.6344 84.342 56.4136 83.1156C55.1929 81.8892 54.5052 80.2308 54.5 78.5004V27.8304C54.5053 26.0948 55.1971 24.4319 56.4243 23.2047C57.6515 21.9775 59.3145 21.2857 61.05 21.2804H110.62C111.461 21.2812 112.3 21.3751 113.12 21.5604" stroke="#63AD9B" stroke-miterlimit="10"/>
<path d="M128.94 31.8905V82.5705C128.938 84.3077 128.247 85.9733 127.019 87.2026C125.792 88.432 124.127 89.1252 122.39 89.1305H71.7102C69.9729 89.1252 68.3084 88.432 67.0809 87.2026C65.8534 85.9733 65.1628 84.3077 65.1602 82.5705V31.8905C65.1654 30.1549 65.8572 28.492 67.0844 27.2647C68.3116 26.0375 69.9746 25.3457 71.7102 25.3405H121.06C121.895 25.3403 122.729 25.4173 123.55 25.5705" stroke="#6DB08B" stroke-miterlimit="10"/>
<path d="M139.64 35.9504V86.6304C139.634 88.3659 138.943 90.0289 137.715 91.2561C136.488 92.4833 134.825 93.1751 133.09 93.1804H82.3996C80.6641 93.1751 79.0011 92.4833 77.7739 91.2561C76.5467 90.0289 75.8549 88.3659 75.8496 86.6304V35.9504C75.8522 34.2131 76.5429 32.5476 77.7704 31.3182C78.9979 30.0888 80.6623 29.3957 82.3996 29.3904H131.5C132.33 29.3921 133.159 29.4556 133.98 29.5804" stroke="#76B37A" stroke-miterlimit="10"/>
<path d="M150.33 40.0004V90.6904C150.325 92.4259 149.633 94.0889 148.406 95.3161C147.178 96.5433 145.516 97.2351 143.78 97.2404H93.09C92.2272 97.243 91.3724 97.0757 90.5742 96.7479C89.7761 96.4202 89.0504 95.9385 88.4384 95.3302C87.8265 94.722 87.3404 93.9992 87.0078 93.2031C86.6752 92.407 86.5026 91.5532 86.5 90.6904V40.0004C86.5185 38.2666 87.2215 36.6104 88.456 35.3928C89.6904 34.1753 91.3561 33.495 93.09 33.5004H142C142.825 33.501 143.65 33.5478 144.47 33.6404" stroke="#7FB767" stroke-miterlimit="10"/>
<path d="M161.02 44.0604V94.7404C161.018 96.4767 160.327 98.1412 159.099 99.369C157.871 100.597 156.207 101.288 154.47 101.29H103.79C102.054 101.288 100.389 100.597 99.1616 99.369C97.9338 98.1412 97.2429 96.4767 97.2402 94.7404V44.0604C97.2429 42.3231 97.9335 40.6576 99.161 39.4282C100.389 38.1988 102.053 37.5057 103.79 37.5004H152.5C152.67 37.5004 154.82 37.5004 154.97 37.5904" stroke="#87BA52" stroke-miterlimit="10"/>
<path d="M171.72 48.1204V98.8004C171.715 100.536 171.023 102.199 169.796 103.426C168.569 104.653 166.906 105.345 165.17 105.35H114.5C112.765 105.345 111.102 104.653 109.874 103.426C108.647 102.199 107.955 100.536 107.95 98.8004V48.1204C107.953 46.3831 108.643 44.7176 109.871 43.4882C111.098 42.2589 112.763 41.5657 114.5 41.5604H162.96C163.04 41.5604 165.35 41.5604 165.42 41.5604" stroke="#8EBD3C" stroke-miterlimit="10"/>
<path d="M182.41 52.1704V102.86C182.405 104.596 181.713 106.259 180.486 107.486C179.259 108.713 177.596 109.405 175.86 109.41H125.17C123.435 109.405 121.772 108.713 120.544 107.486C119.317 106.259 118.625 104.596 118.62 102.86V52.1704C118.625 50.4348 119.317 48.7719 120.544 47.5446C121.772 46.3174 123.435 45.6256 125.17 45.6204H175.86" stroke="#95C11F" stroke-miterlimit="10"/>
</svg>
